<?xml version="1.0" encoding="iso-8859-1"?>
<!-- Uploaded to: SVG Repo, www.svgrepo.com, Generator: SVG Repo Mixer Tools -->
<svg height="800px" width="800px" version="1.1" id="Capa_1" xmlns="http://www.w3.org/2000/svg" xmlns:xlink="http://www.w3.org/1999/xlink" 
	 viewBox="0 0 19.64 19.64" xml:space="preserve">
<g>
	<path style="fill:#030104;" d="M16.888,11.323c-0.359-0.801-1.907-1.461-2.871-1.804c-0.501-1.162-0.557-2.492-0.514-3.426
		l0.018,0.067l0.155-1.471c0.009-0.101,0.236-2.378-0.802-3.435l0.007-0.018l-0.137-0.121C11.903,0.374,10.934,0,9.861,0
		C8.543,0,7.557,0.575,7.507,0.605c-2.04,1.314-1.517,4.05-1.493,4.166L6.052,4.96l0.055,0.005c0.066,0.394,0.402,2.685-0.4,4.554
		c-0.705,0.294-1.395,0.504-1.418,0.513c-0.887,0.339-1.274,0.857-1.295,0.887c-1.248,1.845-1.402,5.795-1.407,5.977
		c0.019,1.065,0.513,1.236,0.566,1.247c2.814,1.255,7.107,1.482,7.296,1.493c0.154,0.003,0.306,0.004,0.457,0.004l0,0
		c4.281,0,7.317-1.253,7.483-1.326c0.548-0.346,0.607-0.655,0.611-0.728C18.338,14.668,16.946,11.46,16.888,11.323z M12.728,5.82
		l-0.011,0.068c-0.174,1.415-1.855,3.815-2.908,3.815c-1.096,0-2.642-2.489-2.807-3.815l-0.01-0.067L6.955,5.767
		C6.952,5.765,6.796,5.54,6.654,4.998C6.847,5.009,7.042,5.025,7.23,5.025l0,0c2.359,0,3.857-0.835,4.457-1.25
		c0.178,0.4,0.564,1.011,1.334,1.339l0.014,0.007c-0.134,0.452-0.266,0.645-0.266,0.645L12.728,5.82z"/>
</g>
</svg>